# xmcd
#
# Track frame offsets:
#	150
#	14498
#	29274
#	46042
#	63355
#	76486
#	90388
#	102641
#	118218
#	131546
#	150494
#	165889
#	181036
#	197636
#
# Disc length: 2881 seconds
#
# Revision: 0
# Processed by: cddbd v1.5.2PL0 Copyright (c) Steve Scherf et al.
# Submitted via: EasyCDDAExtractor 2010.6.0.0
#
DISCID=a50b3f0e
DTITLE=Various Artist - Mr Music Country  06 2012
DYEAR=2012
DGENRE=Country
TTITLE0=Josh Turner - Why don't we just dance
TTITLE1=Raul Malo - Lonely hearts
TTITLE2=The Band Perry - If I die young
TTITLE3=Billy Currington - People are crazy
TTITLE4=Sammy Kershaw - Cadillac style
TTITLE5=David Ferguson - Gone girl
TTITLE6=Trisha Yearwood - Wrong side of Memphis
TTITLE7=Easton Corbin - Roll with it
TTITLE8=Lee Greenwood - Hearts aren't made to break...
TTITLE9=Lee Ann Womack - A little past Little Rock
TTITLE10=Gary Allan - Learning how to bend
TTITLE11=Allison Moorer - Best that I can do
TTITLE12=Mark Chesnutt - This heartache never sleeps
TTITLE13=Sugarland - Stuck like glue
EXTD=
EXTT0=
EXTT1=
EXTT2=
EXTT3=
EXTT4=
EXTT5=
EXTT6=
EXTT7=
EXTT8=
EXTT9=
EXTT10=
EXTT11=
EXTT12=
EXTT13=
PLAYORDER=
